# xmcd
#
# Track frame offsets:
#	150
#	19812
#	38537
#	52420
#	62387
#	72500
#	85042
#	100775
#	111132
#	125262
#	139307
#	153502
#	166900
#	178265
#	186642
#	196692
#	208870
#	220707
#
# Disc length: 3134 seconds
#
# Revision: 4
# Processed by: cddbd v1.5.2PL0 Copyright (c) Steve Scherf et al.
# Submitted via: SynApp - FreeCDDB Version: 2.5
#
DISCID=050c3c12
DTITLE=Various Artist - VA - Trucker fühlen sich frei...
DYEAR=2000
DGENRE=Country
TTITLE0=Gunter Gabriel - Er ist ein Kerl (30 Tonner Diesel)
TTITLE1=Cissy - Trucker fühl'n sich frei
TTITLE2=Truck Stop - Asphaltfieber
TTITLE3=Ralf Paulsen - Bonanza
TTITLE4=Bobby Bare - West Virginia Woman
TTITLE5=Jonny Hill - Fünfhundert Meilen von Zuhaus
TTITLE6=Sammy's Saloon - Ring Of Fire
TTITLE7=Freddy Quinn - Die schönste Frau von Texas
TTITLE8=Tina Rainford - Honky Tonk Hitparade
TTITLE9=Barbara Perry - Why Can't Women Have A Bood Beer Drinking Song
TTITLE10=Tennessee - Chili Lady
TTITLE11=Andreas Ellermann - Wölfe der Nacht
TTITLE12=David Price - The Lonesome Trucker Driver's Waltz
TTITLE13=Bobby Joe Bratcher - Oh, Susanna
TTITLE14=Dave Dudley - Cowboy Boots
TTITLE15=Ricky Key - Rodeo Drifter
TTITLE16=Peter Held - Die Freiheit der Berge
TTITLE17=Sundance - Trucker auf dem Highway
EXTD=
EXTT0=
EXTT1=
EXTT2=
EXTT3=
EXTT4=
EXTT5=
EXTT6=
EXTT7=
EXTT8=
EXTT9=
EXTT10=
EXTT11=
EXTT12=
EXTT13=
EXTT14=
EXTT15=
EXTT16=
EXTT17=
PLAYORDER=
